<?xml version="1.0" encoding="UTF-8"?> <svg xmlns="http://www.w3.org/2000/svg" xmlns:xlink="http://www.w3.org/1999/xlink" width="70px" height="70px" viewBox="0 0 70 70"> <!-- Generator: Sketch 53.1 (72631) - https://sketchapp.com --> <title>API_Integration</title> <desc>Created with Sketch.</desc> <g id="API_Integration" stroke="none" stroke-width="1" fill="none" fill-rule="evenodd"> <g id="Group-11" transform="translate(5.000000, 5.000000)" fill="#3386BC" stroke="#3386BC" stroke-width="0.5"> <path d="M18.4826897,24.7931034 C18.9654483,25.0689655 19.5861379,24.9310345 19.862,24.4482759 C20.1378621,23.9655172 19.999931,23.3448276 19.5171724,23.0689655 L17.862,22.1034483 L17.862,8.79310345 L29.3792414,2.17241379 L40.8971724,8.79310345 L40.8971724,22.1034483 L39.3102759,23 C38.8282069,23.2758621 38.6895862,23.8965517 38.9654483,24.3793103 C39.1730345,24.7241379 39.5178621,24.862069 39.8626897,24.862069 C39.999931,24.862069 40.2075172,24.7931034 40.3447586,24.7241379 L42.4826897,23.4827586 C42.7585517,23.2758621 42.9661379,23 42.9661379,22.5862069 L42.9661379,8.24137931 C42.9661379,7.89655172 42.7585517,7.55172414 42.4826897,7.34482759 L29.9309655,0.103448276 C29.5861379,-0.0344827586 29.2413103,-0.0344827586 28.8964828,0.103448276 L16.4137241,7.34482759 C16.0688966,7.55172414 15.9309655,7.82758621 15.9309655,8.24137931 L15.9309655,22.7241379 C15.9309655,23.0689655 16.1378621,23.4137931 16.4137241,23.6206897 L18.4826897,24.7931034 Z" id="Fill-1"></path> <path d="M26.0688966,47.4136552 C25.5171724,47.4136552 25.0344138,47.8964138 25.0344138,48.4481379 L25.0344138,51.1377931 L13.5171724,57.8281379 L1.99993103,51.0688276 L1.99993103,37.7584828 L13.5171724,31.0688276 L15.3792414,32.1722759 C15.862,32.4481379 16.4826897,32.3102069 16.7585517,31.8274483 C17.0344138,31.3446897 16.8964828,30.724 16.4137241,30.4481379 L13.999931,29.0688276 C13.724069,28.861931 13.3102759,28.861931 12.9654483,29.0688276 L0.482689655,36.3102069 C0.137862069,36.5171034 -6.89655171e-05,36.7929655 -6.89655171e-05,37.2067586 L-6.89655171e-05,51.6895172 C-6.89655171e-05,52.0343448 0.206827586,52.3791724 0.482689655,52.586069 L13.0344138,59.7584828 C13.1723448,59.8274483 13.3792414,59.8971034 13.5171724,59.8971034 C13.724069,59.8971034 13.862,59.8274483 13.999931,59.7584828 L26.5516552,52.5171034 C26.8964828,52.3108966 27.0344138,52.0343448 27.0344138,51.6212414 L27.0344138,48.3791724 C27.0344138,47.8281379 26.6206207,47.4136552 26.0688966,47.4136552" id="Fill-3"></path> <path d="M59.2413793,36.3104828 L46.6896552,29.0691034 C46.4137931,28.8622069 46,28.8622069 45.6551724,29.0691034 L42.7586207,30.7242759 C42.2758621,31.0001379 42.137931,31.6208276 42.4137931,32.1035862 C42.6896552,32.5863448 43.3103448,32.7242759 43.7931034,32.4484138 L46.2068966,31.0691034 L57.7241379,37.7587586 L57.7241379,51.0684138 L46.2068966,57.7587586 L34.6896552,51.0684138 L34.6896552,48.3794483 C34.6896552,47.8277241 34.2068966,47.3449655 33.6551724,47.3449655 C33.1034483,47.3449655 32.6206897,47.8277241 32.6206897,48.3794483 L32.6206897,51.6897931 C32.6206897,52.0346207 32.8275862,52.3794483 33.1034483,52.5863448 L45.6551724,59.8277241 C45.7931034,59.8966897 46,59.9656552 46.137931,59.9656552 C46.2758621,59.9656552 46.4827586,59.8966897 46.6206897,59.8277241 L59.2413793,52.5173793 C59.5172414,52.3104828 59.7241379,52.0346207 59.7241379,51.6208276 L59.7241379,37.138069 C59.7241379,36.7932414 59.5172414,36.4484138 59.2413793,36.3104828" id="Fill-6"></path> <path d="M37.3104828,38.7242759 L29.4484138,43.276 L21.5863448,38.7242759 L21.5863448,29.6208276 L29.4484138,25.0691034 L37.3104828,29.6208276 L37.3104828,38.7242759 Z M39.3097931,39.276 L39.3097931,29.0691034 C39.3097931,28.7242759 39.1035862,28.3794483 38.8277241,28.1725517 L29.9311724,23.0691034 C29.6553103,22.8622069 29.2415172,22.8622069 28.8966897,23.0691034 L20.0001379,28.1725517 C19.6553103,28.3794483 19.5173793,28.6553103 19.5173793,29.0691034 L19.5173793,39.276 C19.5173793,39.6208276 19.7242759,39.9656552 20.0001379,40.1725517 L28.8966897,45.276 C29.0346207,45.3449655 29.2415172,45.413931 29.3794483,45.413931 C29.5173793,45.413931 29.7242759,45.3449655 29.8622069,45.276 L38.7587586,40.1725517 C39.1035862,39.9656552 39.3097931,39.6208276 39.3097931,39.276 L39.3097931,39.276 Z" id="Fill-9"></path> </g> </g> </svg> 