<?xml version="1.0" encoding="UTF-8"?> <svg xmlns="http://www.w3.org/2000/svg" xmlns:xlink="http://www.w3.org/1999/xlink" width="80px" height="80px" viewBox="0 0 80 80"> <!-- Generator: Sketch 50.2 (55047) - http://www.bohemiancoding.com/sketch --> <title>dApp_Development</title> <desc>Created with Sketch.</desc> <defs></defs> <g id="dApp_Development" stroke="none" stroke-width="1" fill="none" fill-rule="evenodd"> <path d="M59.0613762,14 L45.1243637,22.0536714 L45.1243637,27.716321 L40.2348482,24.8906411 L26.2986414,32.9459254 L26.2986414,38.8811433 L20.9362068,35.7820886 L7,43.8373729 L7,59.9455222 L20.9370125,68 L34.8756363,59.9455222 L34.8756363,54.0103042 L40.2356539,57.1093589 L54.1726663,49.0556875 L54.1726663,43.3938444 L59.0613762,46.2195242 L73,38.16424 L73,22.0536714 L59.0613762,14 Z M48.7498077,22.7528337 L59.0613762,16.7926168 L69.374556,22.7528337 L59.0629875,28.7122441 L48.7498077,22.7528337 Z M60.2714689,30.8065051 L70.5830373,24.8479011 L70.5830373,36.7667219 L60.2698575,42.7261323 L60.2714689,30.8065051 Z M54.1726663,40.5980019 L54.1726663,32.9459254 L47.5421321,29.113839 L47.5421321,24.8479011 L57.8545062,30.8073115 L57.8537005,42.7261323 L54.1726663,40.5980019 Z M29.9248911,33.6434748 L40.2356539,27.6848707 L45.1243637,30.5105506 L45.1243637,36.7780117 L40.2364595,39.6020788 L29.9248911,33.6434748 Z M47.5421321,31.9072622 L50.545611,33.6434748 L47.5421321,35.3813001 L47.5421321,31.9072622 Z M34.8756363,51.2144617 L34.8756363,43.8365665 L28.7164097,40.2770485 L28.7164097,35.7385422 L39.0279782,41.6979526 L39.0271725,53.615967 L34.8756363,51.2144617 Z M48.7594756,37.4707226 L51.7557037,35.7393486 L51.7557037,39.2020967 L48.7594756,37.4707226 Z M10.625444,44.5357287 L20.9370125,38.5755118 L26.299447,41.6745666 L26.299447,47.3968908 L20.9378181,50.4951391 L10.625444,44.5357287 Z M41.4449409,41.6979526 L46.3417073,38.8682407 L51.7557037,41.9963263 L51.7557037,47.657363 L41.4441352,53.6167734 L41.4449409,41.6979526 Z M28.7164097,43.0704718 L31.2501923,44.5349223 L28.7164097,45.9993728 L28.7164097,43.0704718 Z M29.6985022,48.2242731 L32.4570623,46.6291833 L32.4570623,49.8201693 L29.6985022,48.2242731 Z M9.41615703,58.5463913 L9.41615703,46.6291833 L9.41696268,46.6291833 L19.7293368,52.5902065 L19.7277255,64.5066081 L9.41615703,58.5463913 Z M22.1454938,52.5910129 L27.2815395,49.6225976 L32.4570623,52.614399 L32.4570623,58.5471977 L22.1446882,64.5074145 L22.1454938,52.5910129 Z" id="Fill-1" fill="#3C80BC"></path> </g> </svg> 