<?xml version="1.0" encoding="UTF-8"?> <svg xmlns="http://www.w3.org/2000/svg" xmlns:xlink="http://www.w3.org/1999/xlink" width="70px" height="70px" viewBox="0 0 70 70"> <!-- Generator: Sketch 53.1 (72631) - https://sketchapp.com --> <title>Decentralized_Exchanges</title> <desc>Created with Sketch.</desc> <g id="Decentralized_Exchanges" stroke="none" stroke-width="1" fill="none" fill-rule="evenodd"> <g id="Group-3" transform="translate(4.000000, 5.000000)" fill="#3386BC"> <path d="M28.3804,42.0258 C25.5964,39.2418 23.8564,35.5218 23.3884,31.4658 L23.3884,31.3458 L23.3884,31.2378 L23.3884,31.1178 L23.3884,30.9978 L23.3884,30.8898 L23.3884,30.7698 L23.3884,30.6498 L23.3884,30.5298 L23.3884,30.4218 L23.3884,30.3018 L23.3884,30.1938 L23.2804,30.0738 L23.2804,29.9538 L23.2804,29.8338 L23.2804,29.7258 L23.2804,29.6058 L23.2804,29.4978 L23.2804,29.3778 L23.2804,29.2578 L23.2804,29.1498 L23.3884,29.0298 L23.3884,28.9098 L23.3884,28.7898 L23.3884,28.6818 L23.3884,28.5618 L23.3884,28.4538 L23.3884,28.3338 L23.3884,28.2138 L23.3884,28.0938 L23.3884,27.9858 L23.3884,27.8658 C23.8564,23.6898 25.5964,19.9818 28.3804,17.1978 C27.2164,16.2738 25.8364,15.5658 24.4324,14.9898 C22.6924,14.4138 20.8444,13.9458 18.8644,13.9458 C14.5804,13.9458 10.6324,15.7938 7.8484,18.5898 C4.9444,21.3738 3.2044,25.3098 3.2044,29.6058 C3.2044,33.9018 4.9444,37.8498 7.8484,40.6338 C10.6324,43.5258 14.5804,45.2778 18.8644,45.2778 C20.8444,45.2778 22.6924,44.9298 24.4324,44.2338 C25.8364,43.6458 27.2164,42.9498 28.3804,42.0258 L28.3804,42.0258 Z M25.5964,27.9858 L25.5964,28.0938 L25.5964,28.5618 L25.5964,28.6818 L25.5964,28.7898 L25.5964,28.9098 L25.5964,29.0298 L25.5964,29.1498 L25.5964,29.2578 L25.5964,29.3778 L25.5964,29.4978 L25.5964,29.6058 L25.5964,29.7258 L25.5964,29.8338 L25.5964,29.9538 L25.5964,30.0738 L25.5964,30.1938 L25.5964,30.3018 L25.5964,30.4218 L25.5964,30.6498 L25.5964,31.2378 C26.0644,34.9458 27.6844,38.1978 30.1204,40.6338 C32.9044,43.5258 36.8524,45.2778 41.1364,45.2778 C45.5524,45.2778 49.3804,43.5258 52.2844,40.6338 C55.0684,37.8498 56.8084,33.9018 56.8084,29.6058 C56.8084,25.3098 55.0684,21.3738 52.2844,18.5898 C49.3804,15.7938 45.5524,13.9458 41.1364,13.9458 C36.8524,13.9458 32.9044,15.7938 30.1204,18.5898 C27.6844,21.0258 26.0644,24.3858 25.5964,27.9858 L25.5964,27.9858 Z M37.4284,4.4298 C37.6564,4.8978 37.5484,5.3538 37.2004,5.7138 L34.2964,8.3778 C33.8404,8.7258 33.1324,8.7258 32.6764,8.2578 C32.3284,7.7898 32.3284,7.0938 32.7964,6.6378 L34.2964,5.3538 C33.9484,5.2458 33.4804,5.1258 33.0244,5.0178 C32.1004,4.7778 31.0564,4.6578 30.0004,4.6578 C28.9564,4.6578 27.9124,4.7778 26.9884,5.0178 C25.9444,5.2458 25.0204,5.4738 24.0964,5.9418 C23.5084,6.1698 22.8124,5.8218 22.5844,5.2458 C22.3564,4.7778 22.5844,4.0818 23.1604,3.8538 C24.3244,3.3858 25.3684,3.0378 26.5204,2.8098 C27.6844,2.5698 28.8484,2.4618 30.0004,2.4618 C31.1644,2.4618 32.3284,2.5698 33.4804,2.8098 C33.9484,2.9178 34.2964,3.0378 34.6444,3.1578 L34.1764,1.4178 C33.9484,0.8298 34.2964,0.2538 34.8844,0.0258 C35.4604,-0.0942 36.1564,0.2538 36.2764,0.8298 L37.4284,4.4298 Z M22.5844,54.7818 C22.4644,54.3258 22.4644,53.8578 22.8124,53.5098 L25.7164,50.9538 C26.1724,50.4978 26.8804,50.4978 27.3364,50.9538 C27.8044,51.4218 27.6844,52.1178 27.2164,52.5858 L25.7164,53.9778 C26.1724,54.0858 26.5204,54.2058 26.9884,54.2058 C27.9124,54.4338 28.9564,54.5538 30.0004,54.5538 C31.0564,54.5538 32.1004,54.4338 33.0244,54.2058 C34.0684,54.0858 35.1124,53.7498 36.0364,53.3898 C36.6244,53.1618 37.2004,53.3898 37.4284,53.9778 C37.6564,54.5538 37.4284,55.1298 36.8524,55.3698 C35.8084,55.8258 34.6444,56.1738 33.4804,56.4138 C32.3284,56.6418 31.1644,56.7618 30.0004,56.7618 C28.8484,56.7618 27.6844,56.6418 26.5204,56.4138 C26.1724,56.2938 25.7164,56.2938 25.3684,56.1738 L25.8364,57.8058 C26.0644,58.3818 25.7164,58.9698 25.1284,59.1978 C24.5524,59.3058 23.9764,59.0778 23.7364,58.5018 L22.5844,54.7818 Z M18.8644,11.7378 C21.0724,11.7378 23.2804,12.2058 25.2484,12.9018 C26.9884,13.5978 28.6204,14.5218 30.0004,15.6858 C33.0244,13.2498 36.9724,11.7378 41.1364,11.7378 C46.1284,11.7378 50.5444,13.7178 53.7964,16.9578 C57.0364,20.2098 59.0164,24.7338 59.0164,29.6058 C59.0164,34.5978 57.0364,39.0138 53.7964,42.2538 C50.5444,45.5058 46.1284,47.4738 41.1364,47.4738 C36.9724,47.4738 33.0244,45.9738 30.0004,43.5258 C28.6204,44.6898 26.9884,45.6138 25.2484,46.3098 C23.2804,47.1258 21.0724,47.4738 18.8644,47.4738 C13.8844,47.4738 9.4684,45.5058 6.2164,42.2538 C2.9764,39.0138 0.9964,34.5978 0.9964,29.6058 C0.9964,24.7338 2.9764,20.2098 6.2164,16.9578 C9.4684,13.7178 13.8844,11.7378 18.8644,11.7378 L18.8644,11.7378 Z" id="Fill-1"></path> </g> </g> </svg> 