<?xml version="1.0" encoding="UTF-8"?> <svg xmlns="http://www.w3.org/2000/svg" xmlns:xlink="http://www.w3.org/1999/xlink" width="98px" height="98px" viewBox="0 0 98 98"> <!-- Generator: Sketch 51.3 (57544) - http://www.bohemiancoding.com/sketch --> <title>Free_Transaction</title> <desc>Created with Sketch.</desc> <defs></defs> <g id="Free_Transaction" stroke="none" stroke-width="1" fill="none" fill-rule="evenodd"> <g transform="translate(5.000000, 5.000000)"> <circle id="Oval" stroke="#999999" stroke-width="3" fill-opacity="0" fill="#D8D8D8" cx="44" cy="44" r="44"></circle> <path d="M17.3971834,41.851555 C16.0059645,41.8513893 16.0043077,41.8477444 16.0023195,40.4891645 C16.0003314,39.1368805 15.9976805,37.7844308 16.0038107,36.4321467 C16.0087811,35.3093302 16.0233609,35.2952473 17.1793136,35.2950817 C30.7578225,35.2937562 44.3363314,35.2993893 57.9148402,35.2894485 C60.3690651,35.2874604 60.1079527,35.6522888 60.1248521,33.0946793 C60.1298225,32.3496142 60.1228639,31.6043834 60.1326391,30.8593183 C60.1359527,30.6164308 60.0852544,30.2892118 60.3374201,30.1876497 C60.5990296,30.0821112 60.7650414,30.3808331 60.9333728,30.5488331 C64.1373018,33.7458036 67.3372544,36.946916 70.5377041,40.1473657 C70.8693964,40.479058 71.2083787,40.8041231 71.5286391,41.146916 C71.6688047,41.2970225 71.9382012,41.4284071 71.8136095,41.6837207 C71.6991243,41.9184899 71.423929,41.8459219 71.2131834,41.8470817 C68.4536095,41.8618272 65.6938698,41.8757444 62.9341302,41.8775669 C58.0342959,41.879058 21.1571361,41.8780639 17.3971834,41.851555" id="Fill-1" fill="#999999"></path> <path d="M70.4485846,46.1615006 C71.8398036,46.1616663 71.8414604,46.1653112 71.8434485,47.5238911 C71.8454367,48.8761751 71.8480876,50.2286249 71.8419574,51.5809089 C71.8368213,52.7037254 71.8224071,52.7178083 70.6664544,52.717974 C57.0879456,52.7192994 43.5094367,52.7136663 29.9309278,52.7236071 C27.476703,52.7255953 27.7378154,52.3607669 27.7207503,54.9183763 C27.7159456,55.6634414 27.7229041,56.4086722 27.7129633,57.1537373 C27.7096497,57.3966249 27.7605136,57.7238438 27.5083479,57.8254059 C27.2467385,57.9309444 27.0807266,57.6322225 26.9123953,57.4642225 C23.7084663,54.2672521 20.5085136,51.0661396 17.3080639,47.8656899 C16.9762059,47.5339976 16.6372237,47.2089325 16.317129,46.8661396 C16.1769633,46.7160331 15.9075669,46.5846485 16.0321586,46.3293349 C16.1466438,46.0945657 16.4218391,46.1671337 16.6325846,46.165974 C19.3921586,46.1512284 22.1518982,46.1373112 24.9116379,46.1354888 C29.8114722,46.1339976 66.688632,46.1349917 70.4485846,46.1615006" id="Fill-4" fill="#999999"></path> </g> </g> </svg> 