<?xml version="1.0" encoding="UTF-8"?> <svg xmlns="http://www.w3.org/2000/svg" xmlns:xlink="http://www.w3.org/1999/xlink" width="98px" height="98px" viewBox="0 0 98 98"> <!-- Generator: Sketch 51.3 (57544) - http://www.bohemiancoding.com/sketch --> <title>Performance</title> <desc>Created with Sketch.</desc> <defs></defs> <g id="Performance" stroke="none" stroke-width="1" fill="none" fill-rule="evenodd" fill-opacity="0" stroke-linecap="round" stroke-linejoin="round"> <g id="noun_performance_1248607" transform="translate(5.000000, 15.000000)" fill="#999999" fill-rule="nonzero" stroke="#979797" stroke-width="3"> <path d="M81.675,21.0911765 C79.475,21.3 76.0375,21.6480392 71.225,22.204902 C68.68125,22.4833333 65.8625,22.7617647 63.04375,23.0401961 C62.5625,22.4833333 62.08125,21.9264706 61.6,21.3696078 C58.85,18.5156863 55.4125,16.2186275 51.5625,14.6872549 C47.7125,13.1558824 43.38125,12.2509804 38.98125,12.4598039 C34.58125,12.6686275 30.04375,13.7127451 25.78125,15.6617647 C17.25625,19.6294118 10.0375,27.5647059 6.80625,37.5882353 C5.15625,42.5303922 4.5375,48.0294118 5.01875,53.4588235 C5.01875,54.8509804 5.3625,56.1735294 5.56875,57.5656863 C5.775,58.9578431 6.11875,60.35 6.53125,61.672549 C7.35625,64.3872549 8.3875,67.0323529 9.7625,69.5382353 L8.3875,70.5127451 C6.1875,67.3107843 4.4,63.8303922 3.09375,60.0019608 C-5.01875,36.822549 6.94375,11.3460784 29.8375,3.0627451 C49.56875,-4.0372549 70.88125,3.96764706 81.675,21.0911765 Z" id="Shape"></path> <path d="M31.41875,42.8784314 C30.86875,48.795098 34.44375,54.154902 40.15,55.8254902 C43.725,56.8 47.1625,56.1735294 50.80625,53.8068627 C56.44375,50.1176471 84.425,33.0637255 86.35,31.8803922 C87.24375,31.3235294 87.65625,30.2098039 87.3125,29.2352941 C87.0375,28.4696078 86.41875,27.8431373 85.59375,27.7039216 C85.3875,27.6343137 85.18125,27.6343137 84.975,27.6343137 C83.11875,27.7735294 45.85625,31.8107843 42.41875,32.0892157 C36.50625,32.5764706 32.0375,36.9617647 31.41875,42.8784314 Z" id="Shape"></path> </g> </g> </svg> 