<?xml version="1.0" encoding="UTF-8"?> <svg xmlns="http://www.w3.org/2000/svg" xmlns:xlink="http://www.w3.org/1999/xlink" width="98px" height="98px" viewBox="0 0 98 98"> <!-- Generator: Sketch 51.3 (57544) - http://www.bohemiancoding.com/sketch --> <title>Plugins</title> <desc>Created with Sketch.</desc> <defs></defs> <g id="Plugins" stroke="none" stroke-width="1" fill="none" fill-rule="evenodd" fill-opacity="0"> <g id="Plugin" transform="translate(16.000000, 11.000000)" fill="#000000" fill-rule="nonzero" stroke="#999999" stroke-width="3.5"> <path d="M64.6363636,35.2727273 L59.4545455,35.2727273 L59.4545455,21.4545455 C59.4545455,17.6545455 56.3454545,14.5454545 52.5454545,14.5454545 L38.7272727,14.5454545 L38.7272727,9.36363636 C38.7272727,4.52727273 34.9272727,0.727272727 30.0909091,0.727272727 C25.2545455,0.727272727 21.4545455,4.52727273 21.4545455,9.36363636 L21.4545455,14.5454545 L7.63636364,14.5454545 C3.83636364,14.5454545 0.727272727,17.6545455 0.727272727,21.4545455 L0.727272727,34.5818182 L5.90909091,34.5818182 C11.0909091,34.5818182 15.2363636,38.7272727 15.2363636,43.9090909 C15.2363636,49.0909091 11.0909091,53.2363636 5.90909091,53.2363636 L0.727272727,53.2363636 L0.727272727,66.3636364 C0.727272727,70.1636364 3.83636364,73.2727273 7.63636364,73.2727273 L20.7636364,73.2727273 L20.7636364,68.0909091 C20.7636364,62.9090909 24.9090909,58.7636364 30.0909091,58.7636364 C35.2727273,58.7636364 39.4181818,62.9090909 39.4181818,68.0909091 L39.4181818,73.2727273 L52.5454545,73.2727273 C56.3454545,73.2727273 59.4545455,70.1636364 59.4545455,66.3636364 L59.4545455,52.5454545 L64.6363636,52.5454545 C69.4727273,52.5454545 73.2727273,48.7454545 73.2727273,43.9090909 C73.2727273,39.0727273 69.4727273,35.2727273 64.6363636,35.2727273 Z" id="Shape"></path> </g> </g> </svg> 