<?xml version="1.0" encoding="UTF-8"?> <svg xmlns="http://www.w3.org/2000/svg" xmlns:xlink="http://www.w3.org/1999/xlink" width="80px" height="80px" viewBox="0 0 80 80"> <!-- Generator: Sketch 55.1 (78136) - https://sketchapp.com --> <title>Smart_Contracts</title> <desc>Created with Sketch.</desc> <g id="Smart_Contracts" stroke="none" stroke-width="1" fill="none" fill-rule="evenodd"> <g id="Group-2" transform="translate(14.000000, 9.000000)" fill="#3C80BC" fill-rule="nonzero"> <g id="Group" transform="translate(4.000000, 0.000000)"> <path d="M43.5517241,62 L3.10344828,62 C1.39241379,62 0,60.6091333 0,58.9 L0,56.8333333 C0,56.2629333 0.463448276,55.8 1.03448276,55.8 C1.60551724,55.8 2.06896552,56.2629333 2.06896552,56.8333333 L2.06896552,58.9 C2.06896552,59.4683333 2.53241379,59.9333333 3.10344828,59.9333333 L43.5517241,59.9333333 C44.1227586,59.9333333 44.5862069,59.4683333 44.5862069,58.9 L44.5862069,15.9278 L30.7096552,2.06666667 L3.10344828,2.06666667 C2.53241379,2.06666667 2.06896552,2.53166667 2.06896552,3.1 L2.06896552,34.4333333 C2.06896552,35.0037333 1.60551724,35.4666667 1.03448276,35.4666667 C0.463448276,35.4666667 0,35.0037333 0,34.4333333 L0,3.1 C0,1.39086667 1.39241379,0 3.10344828,0 L31.137931,0 C31.4131034,0 31.6758621,0.109533333 31.8703448,0.301733333 L46.3531034,14.7684 C46.5455172,14.9626667 46.6551724,15.2251333 46.6551724,15.5 L46.6551724,58.9 C46.6551724,60.6091333 45.2627586,62 43.5517241,62 Z" id="Path"></path> <path d="M45.5586207,16.5333333 C45.5441379,16.5333333 45.5296552,16.5312667 45.5172414,16.5333333 L33.1034483,16.5333333 C31.3924138,16.5333333 30,15.1424667 30,13.4333333 L30,1.03333333 C30,0.615866667 30.2524138,0.237666667 30.6393103,0.0785333333 C31.0262069,-0.0764666667 31.4710345,0.00826666667 31.7668966,0.301733333 L46.0965517,14.6154667 C46.3944828,14.7973333 46.5931034,15.1259333 46.5931034,15.5 C46.5931034,16.0704 46.1296552,16.5333333 45.5586207,16.5333333 Z M32.0689655,3.5278 L32.0689655,13.4333333 C32.0689655,14.0016667 32.5324138,14.4666667 33.1034483,14.4666667 L43.02,14.4666667 L32.0689655,3.5278 Z" id="Shape"></path> </g> <path d="M2.0149254,48.413607 C2.0149254,47.8588208 1.5638508,47.4092873 1.0074627,47.4092873 C0.4510746,47.4092873 -2.66453526e-15,47.8588208 -2.66453526e-15,48.413607 C-2.66453526e-15,50.3714946 1.82122393,51.9534989 4.29850749,52.2946998 L4.29850749,52.4308855 C4.29850749,52.9856717 4.74958209,53.4352051 5.30597019,53.4352051 C5.86235816,53.4352051 6.31343289,52.9856717 6.31343289,52.4308855 L6.31343289,52.2946998 C8.79071644,51.953365 10.6119402,50.3713607 10.6119402,48.413607 C10.6119402,46.4558531 8.79071644,44.8737149 6.31343289,44.532514 L6.31343289,40.6858358 C7.52695521,40.9382549 8.59701497,41.622933 8.59701497,42.5215983 C8.59701497,43.0763844 9.04808957,43.5259179 9.60447754,43.5259179 C10.1608656,43.5259179 10.6119402,43.0763844 10.6119402,42.5215983 C10.6119402,40.5637106 8.79071644,38.9817063 6.31343289,38.6405054 L6.31343289,38.5043197 C6.31343289,37.9495335 5.86235816,37.5 5.30597019,37.5 C4.74958209,37.5 4.29850749,37.9495335 4.29850749,38.5043197 L4.29850749,38.6405054 C1.82122393,38.9818402 -2.66453526e-15,40.5638445 -2.66453526e-15,42.5215983 C-2.66453526e-15,44.479352 1.82122393,46.0614902 4.29850749,46.4026911 L4.29850749,50.2493694 C3.08498503,49.9969503 2.0149254,49.3124061 2.0149254,48.413607 Z M8.59701497,48.413607 C8.59701497,49.3124061 7.52695521,49.9969503 6.31343289,50.2493694 L6.31343289,46.5778444 C7.52695521,46.8302635 8.59701497,47.5148078 8.59701497,48.413607 Z M2.0149254,42.5215983 C2.0149254,41.6227991 3.08498503,40.9382549 4.29850749,40.6858358 L4.29850749,44.3573607 C3.08498503,44.1049416 2.0149254,43.4203974 2.0149254,42.5215983 Z" id="Shape"></path> <path d="M36.5517241,56.8333333 C33.1296552,56.8333333 30.3448276,54.0516 30.3448276,50.6333333 C30.3448276,47.2150667 33.1296552,44.4333333 36.5517241,44.4333333 C39.9737931,44.4333333 42.7586207,47.2150667 42.7586207,50.6333333 C42.7586207,54.0516 39.9737931,56.8333333 36.5517241,56.8333333 Z M36.5517241,46.5 C34.2696552,46.5 32.4137931,48.3538 32.4137931,50.6333333 C32.4137931,52.9128667 34.2696552,54.7666667 36.5517241,54.7666667 C38.8337931,54.7666667 40.6896552,52.9128667 40.6896552,50.6333333 C40.6896552,48.3538 38.8337931,46.5 36.5517241,46.5 Z" id="Shape"></path> <path d="M26.2068966,51.6666667 L15.862069,51.6666667 C15.2910345,51.6666667 14.8275862,51.2037333 14.8275862,50.6333333 C14.8275862,50.0629333 15.2910345,49.6 15.862069,49.6 L26.2068966,49.6 C26.777931,49.6 27.2413793,50.0629333 27.2413793,50.6333333 C27.2413793,51.2037333 26.777931,51.6666667 26.2068966,51.6666667 Z" id="Path"></path> <path d="M26.2068966,47.5333333 L15.862069,47.5333333 C15.2910345,47.5333333 14.8275862,47.0704 14.8275862,46.5 C14.8275862,45.9296 15.2910345,45.4666667 15.862069,45.4666667 L26.2068966,45.4666667 C26.777931,45.4666667 27.2413793,45.9296 27.2413793,46.5 C27.2413793,47.0704 26.777931,47.5333333 26.2068966,47.5333333 Z" id="Path"></path> <path d="M27.2413793,33.0666667 L15.862069,33.0666667 C15.2910345,33.0666667 14.8275862,32.6037333 14.8275862,32.0333333 C14.8275862,31.4629333 15.2910345,31 15.862069,31 L27.2413793,31 C27.8124138,31 28.2758621,31.4629333 28.2758621,32.0333333 C28.2758621,32.6037333 27.8124138,33.0666667 27.2413793,33.0666667 Z" id="Path"></path> <path d="M36.5517241,28.9333333 L15.862069,28.9333333 C15.2910345,28.9333333 14.8275862,28.4704 14.8275862,27.9 C14.8275862,27.3296 15.2910345,26.8666667 15.862069,26.8666667 L36.5517241,26.8666667 C37.1227586,26.8666667 37.5862069,27.3296 37.5862069,27.9 C37.5862069,28.4704 37.1227586,28.9333333 36.5517241,28.9333333 Z" id="Path"></path> <path d="M36.5517241,24.8 L15.862069,24.8 C15.2910345,24.8 14.8275862,24.3370667 14.8275862,23.7666667 C14.8275862,23.1962667 15.2910345,22.7333333 15.862069,22.7333333 L36.5517241,22.7333333 C37.1227586,22.7333333 37.5862069,23.1962667 37.5862069,23.7666667 C37.5862069,24.3370667 37.1227586,24.8 36.5517241,24.8 Z" id="Path"></path> <path d="M29.6896552,12.4 L10.0344828,12.4 C9.46344828,12.4 9,11.9370667 9,11.3666667 C9,10.7962667 9.46344828,10.3333333 10.0344828,10.3333333 L29.6896552,10.3333333 C30.2606897,10.3333333 30.7241379,10.7962667 30.7241379,11.3666667 C30.7241379,11.9370667 30.2606897,12.4 29.6896552,12.4 Z" id="Path"></path> </g> </g> </svg> 