<?xml version="1.0" encoding="UTF-8"?> <svg xmlns="http://www.w3.org/2000/svg" xmlns:xlink="http://www.w3.org/1999/xlink" width="80px" height="80px" viewBox="0 0 80 80"> <!-- Generator: Sketch 50.2 (55047) - http://www.bohemiancoding.com/sketch --> <title>Smart_Contracts_Developement</title> <desc>Created with Sketch.</desc> <defs></defs> <g id="Smart_Contracts_Developement" stroke="none" stroke-width="1" fill="none" fill-rule="evenodd"> <g id="agreement" transform="translate(16.000000, 9.000000)" fill="#3C80BC" fill-rule="nonzero"> <path d="M43.2,3.875 L33.59988,3.875 C33.59904,3.875 33.59832,3.87512109 33.59748,3.87512109 C32.72088,2.69942188 31.32708,1.9375 29.76,1.9375 L27.3132,1.9375 C26.63592,0.755867188 25.37772,0 24,0 C22.62228,0 21.36408,0.755867188 20.6868,1.9375 L18.24,1.9375 C16.67292,1.9375 15.27912,2.69942188 14.40252,3.87512109 C14.40168,3.87512109 14.40084,3.875 14.4,3.875 L4.8,3.875 C2.15328,3.875 0,6.04790625 0,8.71875 L0,57.15625 C0,59.8270938 2.15328,62 4.8,62 L43.2,62 C45.84672,62 48,59.8270938 48,57.15625 L48,8.71875 C48,6.04790625 45.84672,3.875 43.2,3.875 Z M15.36,6.78125 C15.36,5.17881641 16.65204,3.875 18.24,3.875 L21.2964,3.875 C21.7026,3.875 22.06488,3.61694922 22.20096,3.23078125 C22.47336,2.45723438 23.19636,1.9375 24,1.9375 C24.80364,1.9375 25.52664,2.45723438 25.79904,3.23078125 C25.93512,3.61694922 26.2974,3.875 26.7036,3.875 L29.76,3.875 C31.34796,3.875 32.64,5.17881641 32.64,6.78125 L32.64,9.6875 L15.36,9.6875 L15.36,6.78125 Z M46.08,57.15625 C46.08,58.7586836 44.78796,60.0625 43.2,60.0625 L4.8,60.0625 C3.21204,60.0625 1.92,58.7586836 1.92,57.15625 L1.92,8.71875 C1.92,7.11631641 3.21204,5.8125 4.8,5.8125 L13.5366,5.8125 C13.47336,6.12564844 13.44,6.44957422 13.44,6.78125 L13.44,10.65625 C13.44,11.1912422 13.86984,11.625 14.4,11.625 L33.6,11.625 C34.13016,11.625 34.56,11.1912422 34.56,10.65625 L34.56,6.78125 C34.56,6.44957422 34.52664,6.12564844 34.4634,5.8125 L43.2,5.8125 C44.78796,5.8125 46.08,7.11631641 46.08,8.71875 L46.08,57.15625 Z" id="Shape"></path> <path d="M43.2,7.75 L37.44,7.75 C36.90984,7.75 36.48,8.18375781 36.48,8.71875 C36.48,9.25374219 36.90984,9.6875 37.44,9.6875 L42.24,9.6875 L42.24,43.59375 L32.64,43.59375 C31.05204,43.59375 29.76,44.8975664 29.76,46.5 L29.76,52.3123789 C29.76,52.8473711 30.18984,53.2811289 30.72,53.2811289 C31.25016,53.2811289 31.68,52.8473711 31.68,52.3123789 L31.68,46.5 C31.68,45.9658555 32.11068,45.53125 32.64,45.53125 L40.88232,45.53125 L30.32232,56.1875 L5.76,56.1875 L5.76,9.6875 L10.56,9.6875 C11.09016,9.6875 11.52,9.25374219 11.52,8.71875 C11.52,8.18375781 11.09016,7.75 10.56,7.75 L4.8,7.75 C4.26984,7.75 3.84,8.18375781 3.84,8.71875 L3.84,57.15625 C3.84,57.6912422 4.26984,58.125 4.8,58.125 L30.72012,58.125 C30.7212,58.125 30.72216,58.1248789 30.72312,58.1248789 C30.7536,58.1247578 30.78408,58.1233047 30.81456,58.1202773 C30.83004,58.1187031 30.84516,58.115918 30.8604,58.1136172 C30.876,58.1113164 30.89172,58.1095 30.9072,58.1064727 C30.92496,58.1029609 30.94212,58.0981172 30.95952,58.0935156 C30.97236,58.0902461 30.98532,58.0874609 30.99792,58.0835859 C31.01544,58.0782578 31.03224,58.0717187 31.04928,58.0654219 C31.06164,58.0608203 31.07412,58.0568242 31.08636,58.0517383 C31.10292,58.0448359 31.11876,58.0368437 31.13472,58.0290937 C31.14696,58.0231602 31.15932,58.017832 31.17132,58.011293 C31.18788,58.0024531 31.2036,57.9924023 31.21944,57.9825937 C31.23024,57.9759336 31.24116,57.9698789 31.25172,57.9628555 C31.27092,57.9498984 31.28928,57.9357305 31.3074,57.9215625 C31.31388,57.9164766 31.32072,57.9119961 31.3272,57.906668 C31.353,57.8854766 31.3776,57.8629531 31.401,57.8390977 L43.8786,45.2477695 C43.88004,45.2463164 43.88112,45.2446211 43.88256,45.2430469 C43.91076,45.2142266 43.93644,45.1832266 43.96092,45.1511367 C43.96752,45.142418 43.97412,45.1336992 43.98036,45.1248594 C44.00424,45.0910742 44.02656,45.0561992 44.04612,45.0193867 C44.04816,45.0156328 44.04972,45.0116367 44.05164,45.0077617 C44.06928,44.9734922 44.08452,44.9378906 44.09808,44.9014414 C44.1012,44.8929648 44.10444,44.8846094 44.10732,44.8760117 C44.12088,44.8360508 44.13252,44.7952422 44.14092,44.7531016 C44.1414,44.7508008 44.14152,44.7483789 44.142,44.7460781 C44.1492,44.7079336 44.15376,44.6689414 44.1564,44.6293437 C44.15724,44.6177187 44.15772,44.6062148 44.1582,44.5945898 C44.15856,44.5838125 44.15976,44.5733984 44.15976,44.5625 L44.15976,8.71875 C44.16,8.18375781 43.73016,7.75 43.2,7.75 Z" id="Shape"></path> <path d="M24,3.875 C23.7468,3.875 23.4996,3.97792969 23.3208,4.15835938 C23.142,4.33878906 23.04,4.58824219 23.04,4.84375 C23.04,5.09925781 23.142,5.34871094 23.3208,5.52914063 C23.4996,5.70957031 23.7468,5.8125 24,5.8125 C24.252,5.8125 24.5004,5.70957031 24.6792,5.52914063 C24.858,5.34871094 24.96,5.09925781 24.96,4.84375 C24.96,4.58824219 24.858,4.33878906 24.6792,4.15835938 C24.5004,3.97792969 24.252,3.875 24,3.875 Z" id="Shape"></path> <path d="M27.84,18.40625 L37.44,18.40625 C37.97016,18.40625 38.4,17.9724922 38.4,17.4375 C38.4,16.9025078 37.97016,16.46875 37.44,16.46875 L27.84,16.46875 C27.30984,16.46875 26.88,16.9025078 26.88,17.4375 C26.88,17.9724922 27.30984,18.40625 27.84,18.40625 Z" id="Shape"></path> <path d="M20.16,22.28125 L37.44,22.28125 C37.97016,22.28125 38.4,21.8474922 38.4,21.3125 C38.4,20.7775078 37.97016,20.34375 37.44,20.34375 L20.16,20.34375 C19.62984,20.34375 19.2,20.7775078 19.2,21.3125 C19.2,21.8474922 19.62984,22.28125 20.16,22.28125 Z" id="Shape"></path> <path d="M37.44,28.09375 L10.56,28.09375 C10.02984,28.09375 9.6,28.5275078 9.6,29.0625 C9.6,29.5974922 10.02984,30.03125 10.56,30.03125 L37.44,30.03125 C37.97016,30.03125 38.4,29.5974922 38.4,29.0625 C38.4,28.5275078 37.97016,28.09375 37.44,28.09375 Z" id="Shape"></path> <path d="M37.44,31.96875 L10.56,31.96875 C10.02984,31.96875 9.6,32.4025078 9.6,32.9375 C9.6,33.4724922 10.02984,33.90625 10.56,33.90625 L37.44,33.90625 C37.97016,33.90625 38.4,33.4724922 38.4,32.9375 C38.4,32.4025078 37.97016,31.96875 37.44,31.96875 Z" id="Shape"></path> <path d="M37.44,35.84375 L10.56,35.84375 C10.02984,35.84375 9.6,36.2775078 9.6,36.8125 C9.6,37.3474922 10.02984,37.78125 10.56,37.78125 L37.44,37.78125 C37.97016,37.78125 38.4,37.3474922 38.4,36.8125 C38.4,36.2775078 37.97016,35.84375 37.44,35.84375 Z" id="Shape"></path> <path d="M38.4,40.6875 C38.4,40.1525078 37.97016,39.71875 37.44,39.71875 L10.56,39.71875 C10.02984,39.71875 9.6,40.1525078 9.6,40.6875 C9.6,41.2224922 10.02984,41.65625 10.56,41.65625 L37.44,41.65625 C37.97016,41.65625 38.4,41.2224922 38.4,40.6875 Z" id="Shape"></path> <path d="M26.88,43.59375 L19.2,43.59375 C18.66984,43.59375 18.24,44.0275078 18.24,44.5625 C18.24,45.0974922 18.66984,45.53125 19.2,45.53125 L26.88,45.53125 C27.41016,45.53125 27.84,45.0974922 27.84,44.5625 C27.84,44.0275078 27.41016,43.59375 26.88,43.59375 Z" id="Shape"></path> <path d="M26.88,47.46875 L19.2,47.46875 C18.66984,47.46875 18.24,47.9025078 18.24,48.4375 C18.24,48.9724922 18.66984,49.40625 19.2,49.40625 L26.88,49.40625 C27.41016,49.40625 27.84,48.9724922 27.84,48.4375 C27.84,47.9025078 27.41016,47.46875 26.88,47.46875 Z" id="Shape"></path> <path d="M9.6,17.4375 C9.6,17.9724922 10.02984,18.40625 10.56,18.40625 L15.36,18.40625 C15.89016,18.40625 16.32,17.9724922 16.32,17.4375 C16.32,16.9025078 15.89016,16.46875 15.36,16.46875 L10.56,16.46875 C10.02984,16.46875 9.6,16.9025078 9.6,17.4375 Z" id="Shape"></path> <path d="M7.68,47.953125 C7.68,50.356957 9.61788,52.3125 12,52.3125 C14.38212,52.3125 16.32,50.356957 16.32,47.953125 C16.32,45.549293 14.38212,43.59375 12,43.59375 C9.61788,43.59375 7.68,45.549293 7.68,47.953125 Z M14.4,47.953125 C14.4,49.2885469 13.32336,50.375 12,50.375 C10.67664,50.375 9.6,49.2885469 9.6,47.953125 C9.6,46.6177031 10.67664,45.53125 12,45.53125 C13.32336,45.53125 14.4,46.6177031 14.4,47.953125 Z" id="Shape"></path> </g> </g> </svg> 