<?xml version="1.0" encoding="UTF-8"?> <svg xmlns="http://www.w3.org/2000/svg" xmlns:xlink="http://www.w3.org/1999/xlink" width="98px" height="98px" viewBox="0 0 98 98"> <!-- Generator: Sketch 51.3 (57544) - http://www.bohemiancoding.com/sketch --> <title>Upgrades</title> <desc>Created with Sketch.</desc> <defs></defs> <g id="Upgrades" stroke="none" stroke-width="1" fill="none" fill-rule="evenodd"> <g id="noun_upgrade_104308" transform="translate(18.000000, 12.000000)" fill="#999999" fill-rule="nonzero" stroke="#FFFFFF" stroke-width="0.5"> <path d="M31,33.7912088 C29.8578947,33.7912088 28.9605263,32.8846154 28.9605263,31.7307692 L28.9605263,7.82967033 L20.2315789,16.6483516 C19.4973684,17.4725275 18.1921053,17.4725275 17.3763158,16.6483516 C16.5605263,15.9065934 16.5605263,14.5879121 17.3763158,13.7637363 L29.6131579,1.4010989 C30.3473684,0.576923077 31.6526316,0.576923077 32.4684211,1.4010989 L44.7052632,13.7637363 C45.5210526,14.5054945 45.5210526,15.8241758 44.7052632,16.6483516 C44.2973684,17.0604396 43.8078947,17.2252747 43.2368421,17.2252747 C42.6657895,17.2252747 42.1763158,17.0604396 41.7684211,16.6483516 L33.0394737,7.82967033 L33.0394737,31.7307692 C33.0394737,32.8846154 32.1421053,33.7912088 31,33.7912088 Z M2.44736842,75 C1.30526316,75 0.407894737,74.0934066 0.407894737,72.9395604 L0.407894737,31.7307692 C0.407894737,30.5769231 1.30526316,29.6703297 2.44736842,29.6703297 L18.7631579,29.6703297 C19.9052632,29.6703297 20.8026316,30.5769231 20.8026316,31.7307692 C20.8026316,32.8846154 19.9052632,33.7912088 18.7631579,33.7912088 L4.48684211,33.7912088 L4.48684211,70.8791209 L57.5131579,70.8791209 L57.5131579,33.7912088 L43.2368421,33.7912088 C42.0947368,33.7912088 41.1973684,32.8846154 41.1973684,31.7307692 C41.1973684,30.5769231 42.0947368,29.6703297 43.2368421,29.6703297 L59.5526316,29.6703297 C60.6947368,29.6703297 61.5921053,30.5769231 61.5921053,31.7307692 L61.5921053,72.9395604 C61.5921053,74.0934066 60.6947368,75 59.5526316,75 L2.44736842,75 Z" id="Shape"></path> </g> </g> </svg> 